<?xml version="1.0" encoding="UTF-8" standalone="no"?>
<!-- Created with Inkscape (http://www.inkscape.org/) -->

<svg
   width="69.186249mm"
   height="45.291817mm"
   viewBox="0 0 69.186249 45.291817"
   version="1.1"
   id="svg364"
   inkscape:version="1.1.2 (0a00cf5339, 2022-02-04)"
   sodipodi:docname="favicon.svg"
   xmlns:inkscape="http://www.inkscape.org/namespaces/inkscape"
   xmlns:sodipodi="http://sodipodi.sourceforge.net/DTD/sodipodi-0.dtd"
   xmlns="http://www.w3.org/2000/svg"
   xmlns:svg="http://www.w3.org/2000/svg">
  <sodipodi:namedview
     id="namedview366"
     pagecolor="#ffffff"
     bordercolor="#666666"
     borderopacity="1.0"
     inkscape:pageshadow="2"
     inkscape:pageopacity="0.0"
     inkscape:pagecheckerboard="0"
     inkscape:document-units="mm"
     showgrid="false"
     fit-margin-left="1"
     fit-margin-top="1"
     fit-margin-right="1"
     fit-margin-bottom="1"
     inkscape:zoom="0.73940797"
     inkscape:cx="-321.87914"
     inkscape:cy="236.67584"
     inkscape:window-width="1920"
     inkscape:window-height="1048"
     inkscape:window-x="0"
     inkscape:window-y="0"
     inkscape:window-maximized="1"
     inkscape:current-layer="layer1" />
  <defs
     id="defs361" />
  <g
     inkscape:label="Layer 1"
     inkscape:groupmode="layer"
     id="layer1"
     transform="translate(-70.251451,-85.77698)">
    <g
       id="g20"
       transform="matrix(0.18788518,0,0,-0.17227941,110.96889,97.20495)">
      <path
         d="m 0,0 c 0,0 7.42,0.665 14.071,7.316 6.651,6.65 7.902,5.711 11.084,2.882 3.991,-3.548 5.987,-13.08 15.297,9.532 9.312,22.613 10.863,27.269 22.835,-15.296 11.972,-42.565 27.49,-56.31 36.801,-36.358 9.311,19.952 20.063,-9.09 46.112,-17.292 0,0 -15.297,7.537 -27.932,24.164 -12.637,16.627 -18.402,13.08 -23.057,4.213 C 90.556,-29.707 83.904,-31.481 74.815,-1.552 65.726,28.376 52.867,72.272 42.892,46.334 32.915,20.396 32.028,12.858 27.816,17.957 23.604,23.056 18.948,25.495 12.519,14.188 6.09,2.882 0,0 0,0"
         style="fill:#231f20;fill-opacity:1;fill-rule:nonzero;stroke:none"
         id="path22"
         inkscape:connector-curvature="0" />
    </g>
    <g
       id="g24"
       transform="matrix(0.18788518,0,0,-0.17227941,71.251451,105.49294)">
      <path
         d="m 0,0 c 0,0 37.023,8.868 55.978,34.474 15.987,21.596 23.278,27.601 28.599,18.954 9.367,-15.222 10.308,-7.759 15.629,-3.325 5.32,4.434 8.424,5.653 14.631,2.993 6.208,-2.66 14.854,-8.535 21.949,17.625 7.093,26.159 9.153,20.87 18.622,-3.326 5.986,-15.297 16.434,-26.991 20.783,-32.09 4.822,-5.653 -1.321,-7.38 -42.288,-17.569 C 90.229,6.873 -1.97,-18.558 2.771,-72.605 c 4.988,-56.864 96.77,-82.138 328.219,-64.513 0,0 -203.738,-6.096 -265.368,24.054 -61.631,30.15 -51.877,75.376 21.282,103.31 73.159,27.933 113.951,25.273 109.517,40.791 -4.434,15.519 -20.617,17.736 -39.351,60.301 -18.733,42.565 -27.601,-5.764 -29.374,-14.189 -1.774,-8.424 -4.877,-17.735 -11.528,-13.744 -6.651,3.99 -9.755,4.877 -13.967,-0.665 C 97.989,57.197 94.885,52.098 89.564,66.397 84.244,80.697 77.15,85.574 54.98,48.773 32.811,11.972 0,0 0,0"
         style="fill:#000000;fill-opacity:1;fill-rule:nonzero;stroke:none"
         id="path26"
         inkscape:connector-curvature="0" />
    </g>
    <g
       id="g28"
       transform="matrix(0.18788518,0,0,-0.17227941,107.73962,97.62514)">
      <path
         d="m 0,0 c 0,0 18.732,-0.554 39.351,-5.542 20.617,-4.988 34.053,-9.351 6.65,-34.917 -19.842,-18.512 -74.822,-46.445 103.863,-44.228 0,0 -81.139,-10.198 -124.592,-2.217 -54.061,9.93 7.539,45.226 18.179,57.64 C 54.093,-16.849 48.994,-11.084 0,0"
         style="fill:#231f20;fill-opacity:1;fill-rule:nonzero;stroke:none"
         id="path30"
         inkscape:connector-curvature="0" />
    </g>
    <g
       id="g32"
       transform="matrix(0.18788518,0,0,-0.17227941,109.135,99.09556)">
      <path
         d="m 0,0 c 0,0 8.594,-1.055 19.065,-4.766 8.757,-3.104 4.545,-11.196 -20.134,-32.265 -28.006,-23.91 -36.893,-34.05 -27.372,-47.81 13.833,-19.992 80.618,-22.902 114.56,-22.902 0,0 -45.818,-6.546 -84.268,-3.011 -45.179,4.153 -52.555,28.467 -46.351,41.241 6.205,12.774 29.263,30.83 39.512,38.088 C 24.829,-10.309 17.07,-7.538 12.857,-5.764 9.315,-4.272 0,0 0,0"
         style="fill:#231f20;fill-opacity:1;fill-rule:nonzero;stroke:none"
         id="path34"
         inkscape:connector-curvature="0" />
    </g>
    <g
       id="g36"
       transform="matrix(0.18788518,0,0,-0.17227941,103.22064,104.97696)">
      <path
         d="m 0,0 c 0,0 -22.613,-10.863 -48.995,-35.692 -26.381,-24.83 -14.221,-42.62 13.411,-52.184 28.363,-9.819 72.385,-15.211 134.237,-6.122 0,0 -54.314,0.665 -85.13,4.434 -25.432,3.11 -43.452,10.197 -54.093,20.174 -11.518,10.799 -7.322,23.874 4.434,36.579 C -14.188,-9.089 0,0 0,0"
         style="fill:#231f20;fill-opacity:1;fill-rule:nonzero;stroke:none"
         id="path38"
         inkscape:connector-curvature="0" />
    </g>
  </g>
</svg>
